<svg width="64" height="64" viewBox="0 0 64 64" fill="none" xmlns="http://www.w3.org/2000/svg">
<path d="M8.31905 4.08008H43.3334C45.0053 4.08008 46.6521 4.57146 48.0085 5.549C49.1134 6.34526 50.1438 7.52885 50.4267 9.24618C50.4452 9.3583 50.4525 9.47243 50.4536 9.58603L50.7298 36.9323C50.7382 37.7614 50.5702 38.588 50.1992 39.3295C49.7061 40.315 48.7678 41.3791 46.9922 41.6157C46.7705 41.6452 46.5464 41.6538 46.3227 41.6538H11.2797C10.6328 41.6538 10.0136 41.9165 9.56409 42.3818L4.24261 47.8899C3.83644 48.3103 3.29108 48.5826 2.70726 48.6111C2.05689 48.6429 1.35645 48.4018 1.35645 47.216V11.4106C1.35645 9.29252 2.2035 7.24026 3.76919 5.81371C3.90382 5.69104 4.04522 5.57116 4.19354 5.45519C5.36575 4.5391 6.83135 4.08008 8.31905 4.08008Z" fill="white"/>
<path d="M24.506 45.1157H46.9718C48.2457 45.1157 49.5003 44.789 50.6022 44.1498C52.122 43.2681 53.9459 41.7004 54.4169 39.1202C54.4913 38.7125 54.5167 38.2974 54.5167 37.883L54.5166 23.1504H57.7433C58.655 23.1504 59.5587 23.3394 60.3849 23.7248C61.8111 24.3904 63.6423 25.7499 63.7965 28.3721V60.0468C63.7965 60.3207 63.722 60.5935 63.5611 60.8152C63.2448 61.2508 62.5529 61.6261 61.1572 60.3126L56.7952 55.6715C56.1834 55.0204 55.3292 54.6518 54.4358 54.6531L28.4849 54.6924C27.5073 54.6939 26.5457 54.3717 25.8048 53.734C25.2567 53.2623 24.7533 52.5739 24.5582 51.5807C24.5218 51.3952 24.5059 51.2054 24.5059 51.0164L24.506 45.1157Z" fill="white"/>
</svg>
