<svg width="32" height="20" viewBox="0 0 32 20" fill="none" xmlns="http://www.w3.org/2000/svg">
<path d="M31.0563 5.90723H0V7.38409H31.0563V5.90723Z" fill="#DB2E2E"/>
<path d="M31.0563 2.9541H0V4.43092H31.0563V2.9541Z" fill="#DB2E2E"/>
<path d="M30.0563 0H1C0.447715 0 0 0.447715 0 1V1.47684H31.0563V1C31.0563 0.447715 30.6086 0 30.0563 0Z" fill="#DB2E2E"/>
<path d="M31.0563 8.86133H0V10.3381H31.0563V8.86133Z" fill="#DB2E2E"/>
<path d="M31.0563 11.8057H0V13.2825H31.0563V11.8057Z" fill="#DB2E2E"/>
<path d="M31.0563 14.7681H0V16.2449H31.0563V14.7681Z" fill="#DB2E2E"/>
<path d="M31.0563 17.7134H0V18.1903C0 18.7425 0.447715 19.1903 1 19.1903H30.0563C30.6086 19.1903 31.0563 18.7425 31.0563 18.1903V17.7134Z" fill="#DB2E2E"/>
<path d="M31.0563 4.43066H0V5.90755H31.0563V4.43066Z" fill="white"/>
<path d="M31.0563 1.47656H0V2.95342H31.0563V1.47656Z" fill="white"/>
<path d="M31.0563 7.38428H0V8.86112H31.0563V7.38428Z" fill="white"/>
<path d="M31.0563 10.3286H0V11.8055H31.0563V10.3286Z" fill="white"/>
<path d="M31.0563 13.2827H0V14.7596H31.0563V13.2827Z" fill="white"/>
<path d="M31.0563 16.2363H0V17.7131H31.0563V16.2363Z" fill="white"/>
<path d="M11.6087 0H1C0.447715 0 0 0.447715 0 0.999999V8.94265H11.6087V0Z" fill="#2E4593"/>
<path d="M9.70494 1.82127L9.83181 2.16558L9.53275 1.94812L9.24276 2.16558L9.36963 1.82127L9.06152 1.61287H9.424L9.52369 1.26855L9.6415 1.61287H10.013L9.70494 1.82127Z" fill="white"/>
<path d="M9.70494 3.62397L9.83181 3.97733L9.53275 3.75989L9.24276 3.97733L9.36963 3.62397L9.06152 3.42466H9.424L9.52369 3.07129L9.6415 3.42466H10.013L9.70494 3.62397Z" fill="white"/>
<path d="M9.70494 5.43646L9.83181 5.78075L9.53275 5.5633L9.24276 5.78075L9.36963 5.43646V5.4274L9.06152 5.22808H9.424L9.52369 4.88379L9.6415 5.22808H10.013L9.70494 5.4274V5.43646Z" fill="white"/>
<path d="M9.70494 7.23922L9.83181 7.58352L9.53275 7.36607L9.24276 7.58352L9.36963 7.23922L9.06152 7.03083H9.424L9.52369 6.68652L9.6415 7.03083H10.013L9.70494 7.23922Z" fill="white"/>
<path d="M7.78404 1.82127L7.91091 2.16558L7.61186 1.94812L7.32187 2.16558L7.44874 1.82127L7.14062 1.61287H7.50312L7.61186 1.26855L7.72061 1.61287H8.0831L7.78404 1.82127Z" fill="white"/>
<path d="M7.78404 3.62397L7.91091 3.97733L7.61186 3.75989L7.32187 3.97733L7.44874 3.62397L7.14062 3.42466H7.50312L7.61186 3.07129L7.72061 3.42466H8.0831L7.78404 3.62397Z" fill="white"/>
<path d="M7.78404 5.43646L7.91091 5.78075L7.61186 5.5633L7.32187 5.78075L7.44874 5.43646V5.4274L7.14062 5.22808H7.50312L7.61186 4.88379L7.72061 5.22808H8.0831L7.78404 5.4274V5.43646Z" fill="white"/>
<path d="M7.78404 7.23922L7.91091 7.58352L7.61186 7.36607L7.32187 7.58352L7.44874 7.23922L7.14062 7.03083H7.50312L7.61186 6.68652L7.72061 7.03083H8.0831L7.78404 7.23922Z" fill="white"/>
<path d="M5.86314 1.82127L5.99001 2.16558L5.69096 1.94812L5.40097 2.16558L5.51878 1.82127H5.52784L5.21973 1.61287H5.59128L5.6819 1.26855L5.79971 1.61287H6.17126L5.86314 1.82127Z" fill="white"/>
<path d="M5.86314 3.62397L5.99001 3.97733L5.69096 3.75989L5.40097 3.97733L5.51878 3.62397H5.52784L5.21973 3.42466H5.59128L5.6819 3.07129L5.79971 3.42466H6.17126L5.86314 3.62397Z" fill="white"/>
<path d="M5.86314 5.43646L5.99001 5.78075L5.69096 5.5633L5.40097 5.78075L5.51878 5.43646L5.52784 5.4274L5.21973 5.22808H5.59128L5.6819 4.88379L5.79971 5.22808H6.17126L5.86314 5.4274V5.43646Z" fill="white"/>
<path d="M5.86314 7.23922L5.99001 7.58352L5.69096 7.36607L5.40097 7.58352L5.51878 7.23922H5.52784L5.21973 7.03083H5.59128L5.6819 6.68652L5.79971 7.03083H6.17126L5.86314 7.23922Z" fill="white"/>
<path d="M3.97839 1.82127L4.09619 2.16558L3.8062 1.94812L3.50715 2.16558L3.63402 1.82127L3.33496 1.61287H3.69745L3.79714 1.26855L3.90589 1.61287H4.27744L3.97839 1.82127Z" fill="white"/>
<path d="M3.97839 3.62397L4.09619 3.97733L3.8062 3.75989L3.50715 3.97733L3.63402 3.62397L3.33496 3.42466H3.69745L3.79714 3.07129L3.90589 3.42466H4.27744L3.97839 3.62397Z" fill="white"/>
<path d="M3.97839 5.43646L4.09619 5.78075L3.8062 5.5633L3.50715 5.78075L3.63402 5.43646V5.4274L3.33496 5.22808H3.69745L3.79714 4.88379L3.90589 5.22808H4.27744L3.97839 5.4274V5.43646Z" fill="white"/>
<path d="M3.97839 7.23922L4.09619 7.58352L3.8062 7.36607L3.50715 7.58352L3.63402 7.23922L3.33496 7.03083H3.69745L3.79714 6.68652L3.90589 7.03083H4.27744L3.97839 7.23922Z" fill="white"/>
<path d="M2.08482 1.82127L2.21169 2.16558L1.91264 1.94812L1.62265 2.16558L1.74046 1.82127H1.74952L1.44141 1.61287H1.81296L1.90358 1.26855L2.02139 1.61287H2.39294L2.08482 1.82127Z" fill="white"/>
<path d="M2.08482 3.62397L2.21169 3.97733L1.91264 3.75989L1.62265 3.97733L1.74046 3.62397H1.74952L1.44141 3.42466H1.81296L1.90358 3.07129L2.02139 3.42466H2.39294L2.08482 3.62397Z" fill="white"/>
<path d="M2.08482 5.43646L2.21169 5.78075L1.91264 5.5633L1.62265 5.78075L1.74046 5.43646L1.74952 5.4274L1.44141 5.22808H1.81296L1.90358 4.88379L2.02139 5.22808H2.39294L2.08482 5.4274V5.43646Z" fill="white"/>
<path d="M2.08482 7.23922L2.21169 7.58352L1.91264 7.36607L1.62265 7.58352L1.74046 7.23922H1.74952L1.44141 7.03083H1.81296L1.90358 6.68652L2.02139 7.03083H2.39294L2.08482 7.23922Z" fill="white"/>
<path d="M10.6395 2.72728L10.7664 3.07156L10.4673 2.85412L10.1773 3.07156L10.2951 2.72728L10.3042 2.71821H10.2951L9.99609 2.51889H10.3586L10.4583 2.16553L10.5761 2.51889H10.9386L10.6395 2.71821V2.72728Z" fill="white"/>
<path d="M10.6395 4.53023L10.7664 4.87454L10.4673 4.65708L10.1773 4.87454L10.2951 4.53023H10.3042H10.2951L9.99609 4.32184H10.3586L10.4583 3.97754L10.5761 4.32184H10.9386L10.6395 4.53023Z" fill="white"/>
<path d="M10.6395 6.33296L10.7664 6.68631L10.4673 6.46886L10.1773 6.68631L10.2951 6.33296H10.3042H10.2951L9.99609 6.13363H10.3586L10.4583 5.78027L10.5761 6.13363H10.9386L10.6395 6.33296Z" fill="white"/>
<path d="M10.6395 8.14544L10.7664 8.48973L10.4673 8.27228L10.1773 8.48973L10.2951 8.14544H10.3042H10.2951L9.99609 7.93706H10.3586L10.4583 7.59277L10.5761 7.93706V7.94612V7.93706H10.9386L10.6395 8.14544Z" fill="white"/>
<path d="M10.6395 0.924263L10.7664 1.26856L10.4673 1.06018V1.05111V1.06018L10.1773 1.26856L10.2951 0.924263H10.3042H10.2951L9.99609 0.715879H10.3586L10.4583 0.371582L10.5761 0.715879V0.724935V0.715879H10.9386L10.6395 0.924263Z" fill="white"/>
<path d="M8.76354 2.72728L8.88134 3.07156L8.59135 2.85412L8.2923 3.07156L8.41917 2.72728V2.71821L8.12012 2.51889H8.4826L8.58229 2.16553L8.69104 2.51889H9.06259L8.76354 2.71821V2.72728Z" fill="white"/>
<path d="M8.76354 4.53023L8.88134 4.87454L8.59135 4.65708L8.2923 4.87454L8.41917 4.53023L8.12012 4.32184H8.4826L8.58229 3.97754L8.69104 4.32184H9.06259L8.76354 4.53023Z" fill="white"/>
<path d="M8.76354 6.33296L8.88134 6.68631L8.59135 6.46886L8.2923 6.68631L8.41917 6.33296L8.12012 6.13363H8.4826L8.58229 5.78027L8.69104 6.13363H9.06259L8.76354 6.33296Z" fill="white"/>
<path d="M8.76354 8.14544L8.88134 8.48973L8.59135 8.27228L8.2923 8.48973L8.41917 8.14544L8.12012 7.93706H8.4826L8.58229 7.59277L8.69104 7.93706V7.94612V7.93706H9.06259L8.76354 8.14544Z" fill="white"/>
<path d="M8.76354 0.924263L8.88134 1.26856L8.59135 1.06018V1.05111V1.06018L8.2923 1.26856L8.41917 0.924263L8.12012 0.715879H8.4826L8.58229 0.371582L8.69104 0.715879V0.724935V0.715879H9.06259L8.76354 0.924263Z" fill="white"/>
<path d="M6.80554 2.72728L6.93241 3.07156L6.63336 2.85412L6.34336 3.07156L6.47023 2.72728V2.71821L6.16211 2.51889H6.5246L6.62429 2.16553L6.7421 2.51889H7.1046L6.80554 2.71821V2.72728Z" fill="white"/>
<path d="M6.80554 4.53023L6.93241 4.87454L6.63336 4.65708L6.34336 4.87454L6.47023 4.53023L6.16211 4.32184H6.5246L6.62429 3.97754L6.7421 4.32184H7.1046L6.80554 4.53023Z" fill="white"/>
<path d="M6.80554 6.33296L6.93241 6.68631L6.63336 6.46886L6.34336 6.68631L6.47023 6.33296L6.16211 6.13363H6.5246L6.62429 5.78027L6.7421 6.13363H7.1046L6.80554 6.33296Z" fill="white"/>
<path d="M6.80554 8.14544L6.93241 8.48973L6.63336 8.27228L6.34336 8.48973L6.47023 8.14544L6.16211 7.93706H6.5246L6.62429 7.59277L6.7421 7.93706V7.94612V7.93706H7.1046L6.80554 8.14544Z" fill="white"/>
<path d="M6.80554 0.924263L6.93241 1.26856L6.63336 1.06018V1.05111V1.06018L6.34336 1.26856L6.47023 0.924263L6.16211 0.715879H6.5246L6.62429 0.371582L6.7421 0.715879V0.724935V0.715879H7.1046L6.80554 0.924263Z" fill="white"/>
<path d="M4.89314 2.72728L5.02001 3.07156L4.73002 2.85412L4.43097 3.07156L4.55784 2.72728V2.71821L4.25879 2.51889H4.62128L4.72096 2.16553L4.8297 2.51889H5.20125L4.89314 2.71821V2.72728Z" fill="white"/>
<path d="M4.89314 4.53023L5.02001 4.87454L4.73002 4.65708L4.43097 4.87454L4.55784 4.53023L4.25879 4.32184H4.62128L4.72096 3.97754L4.8297 4.32184H5.20125L4.89314 4.53023Z" fill="white"/>
<path d="M4.89314 6.33296L5.02001 6.68631L4.73002 6.46886L4.43097 6.68631L4.55784 6.33296L4.25879 6.13363H4.62128L4.72096 5.78027L4.8297 6.13363H5.20125L4.89314 6.33296Z" fill="white"/>
<path d="M4.89314 8.14544L5.02001 8.48973L4.73002 8.27228L4.43097 8.48973L4.55784 8.14544L4.25879 7.93706H4.62128L4.72096 7.59277L4.8297 7.93706V7.94612V7.93706H5.20125L4.89314 8.14544Z" fill="white"/>
<path d="M4.89314 0.924263L5.02001 1.26856L4.73002 1.06018V1.05111V1.06018L4.43097 1.26856L4.55784 0.924263L4.25879 0.715879H4.62128L4.72096 0.371582L4.8297 0.715879V0.724935V0.715879H5.20125L4.89314 0.924263Z" fill="white"/>
<path d="M3.02721 2.72728L3.15408 3.07156L2.85502 2.85412L2.56503 3.07156L2.68284 2.72728L2.6919 2.71821L2.38379 2.51889H2.74628L2.84597 2.16553L2.96377 2.51889H3.32626L3.02721 2.71821V2.72728Z" fill="white"/>
<path d="M3.02721 4.53023L3.15408 4.87454L2.85502 4.65708L2.56503 4.87454L2.68284 4.53023H2.6919L2.38379 4.32184H2.74628L2.84597 3.97754L2.96377 4.32184H3.32626L3.02721 4.53023Z" fill="white"/>
<path d="M3.02721 6.33296L3.15408 6.68631L2.85502 6.46886L2.56503 6.68631L2.68284 6.33296H2.6919L2.38379 6.13363H2.74628L2.84597 5.78027L2.96377 6.13363H3.32626L3.02721 6.33296Z" fill="white"/>
<path d="M3.02721 8.14544L3.15408 8.48973L2.85502 8.27228L2.56503 8.48973L2.68284 8.14544H2.6919L2.38379 7.93706H2.74628L2.84597 7.59277L2.96377 7.93706V7.94612V7.93706H3.32626L3.02721 8.14544Z" fill="white"/>
<path d="M3.02721 0.924263L3.15408 1.26856L2.85502 1.06018V1.05111V1.06018L2.56503 1.26856L2.68284 0.924263H2.6919L2.38379 0.715879H2.74628L2.84597 0.371582L2.96377 0.715879V0.724935V0.715879H3.32626L3.02721 0.924263Z" fill="white"/>
<path d="M1.12292 2.72728L1.24979 3.07156L0.959796 2.85412H0.950732L0.660737 3.07156L0.787609 2.72728V2.71821L0.479492 2.51889H0.841981L0.941667 2.16553L1.05948 2.51889H1.42198L1.12292 2.71821V2.72728Z" fill="white"/>
<path d="M1.12292 4.53023L1.24979 4.87454L0.959796 4.65708H0.950732L0.660737 4.87454L0.787609 4.53023L0.479492 4.32184H0.841981L0.941667 3.97754L1.05948 4.32184H1.42198L1.12292 4.53023Z" fill="white"/>
<path d="M1.12292 6.33296L1.24979 6.68631L0.959796 6.46886H0.950732L0.660737 6.68631L0.787609 6.33296L0.479492 6.13363H0.841981L0.941667 5.78027L1.05948 6.13363H1.42198L1.12292 6.33296Z" fill="white"/>
<path d="M1.12292 8.14544L1.24979 8.48973L0.959796 8.27228H0.950732L0.660737 8.48973L0.787609 8.14544L0.479492 7.93706H0.841981L0.941667 7.59277L1.05948 7.93706V7.94612V7.93706H1.42198L1.12292 8.14544Z" fill="white"/>
<path d="M1.12292 0.924263L1.24979 1.26856L0.959796 1.06018L0.950732 1.05111V1.06018L0.660737 1.26856L0.787609 0.924263L0.479492 0.715879H0.841981L0.941667 0.371582L1.05948 0.715879V0.724935V0.715879H1.42198L1.12292 0.924263Z" fill="white"/>
</svg>
