<svg width="64" height="48" viewBox="0 0 64 48" fill="none" xmlns="http://www.w3.org/2000/svg">
<g clip-path="url(#clip0_396_2)">
<path d="M4.36364 48.0001H14.5455V23.2729L0 12.3638V43.6365C0 46.051 1.95636 48.0001 4.36364 48.0001Z" fill="white"/>
<path d="M49.4541 48.0001H59.6359C62.0505 48.0001 63.9996 46.0438 63.9996 43.6365V12.3638L49.4541 23.2729" fill="white"/>
<path d="M49.4541 4.36381V23.2729L63.9996 12.3638V6.54563C63.9996 1.14926 57.8396 -1.9271 53.5268 1.30926" fill="white"/>
<path d="M14.5459 23.2729V4.36377L32.0004 17.4547L49.455 4.36377V23.2729L32.0004 36.3638" fill="white"/>
<path d="M0 6.54563V12.3638L14.5455 23.2729V4.36381L10.4727 1.30926C6.15273 -1.9271 0 1.14926 0 6.54563Z" fill="white"/>
</g>
<defs>
<clipPath id="clip0_396_2">
<rect width="64" height="48" fill="white"/>
</clipPath>
</defs>
</svg>
