<svg width="65" height="64" viewBox="0 0 65 64" fill="none" xmlns="http://www.w3.org/2000/svg">
<path d="M33.8542 26.6665C33.8542 22.2665 30.198 18.6665 25.7292 18.6665C21.2605 18.6665 17.6042 22.2665 17.6042 26.6665C17.6042 31.0665 21.2605 34.6665 25.7292 34.6665C30.198 34.6665 33.8542 31.0665 33.8542 26.6665ZM25.7292 29.3332C24.2397 29.3332 23.0209 28.1332 23.0209 26.6665C23.0209 25.1999 24.2397 23.9999 25.7292 23.9999C27.2188 23.9999 28.4376 25.1999 28.4376 26.6665C28.4376 28.1332 27.2188 29.3332 25.7292 29.3332ZM43.3334 34.6665C46.3397 34.6665 48.7501 32.2932 48.7501 29.3332C48.7501 26.3732 46.3397 23.9999 43.3334 23.9999C40.3272 23.9999 37.8897 26.3732 37.9167 29.3332C37.9167 32.2932 40.3272 34.6665 43.3334 34.6665ZM32.473 5.35986C17.523 5.35986 5.38965 17.3065 5.38965 32.0265C5.38965 46.7465 17.523 58.6932 32.473 58.6932C47.423 58.6932 59.5563 46.7465 59.5563 32.0265C59.5563 17.3065 47.423 5.35986 32.473 5.35986ZM15.8167 45.6532C17.6584 44.2132 21.9646 42.6932 25.7292 42.6932C25.9188 42.6932 26.1355 42.7199 26.3521 42.7199C27.0021 41.0132 28.1667 39.2799 29.873 37.7599C28.3563 37.4932 26.9209 37.3332 25.7292 37.3332C22.2084 37.3332 16.548 38.5332 12.9188 41.1465C11.5646 38.3732 10.8063 35.2799 10.8063 31.9999C10.8063 20.2399 20.5292 10.6665 32.473 10.6665C44.4167 10.6665 54.1397 20.2399 54.1397 31.9999C54.1397 35.1999 53.4084 38.2399 52.1084 40.9865C49.4001 39.4132 45.7167 38.6665 43.3334 38.6665C39.2167 38.6665 31.1459 40.8265 31.1459 45.8665V53.2799C24.998 52.9332 19.5271 50.0532 15.8167 45.6532Z" fill="white"/>
</svg>
