<svg width="57" height="48" viewBox="0 0 57 48" fill="none" xmlns="http://www.w3.org/2000/svg">
<path d="M56.9778 4.16579C56.1879 12.5989 52.77 33.0633 51.0305 42.5086C50.2948 46.5051 48.8459 47.8452 47.4435 47.9762C44.3958 48.2613 42.0808 45.9296 39.1285 43.9632C34.5089 40.8863 31.8991 38.9709 27.4147 35.9684C22.2325 32.4986 25.592 30.5922 28.5453 27.4741C29.3183 26.6584 42.7483 14.2465 43.0082 13.1206C43.0406 12.9797 43.0717 12.4539 42.764 12.1778C42.4562 11.9017 42.0042 11.9952 41.6772 12.0703C41.214 12.1772 33.834 17.1335 19.5372 26.939C17.4426 28.4005 15.5452 29.1126 13.8452 29.0753C11.971 29.0342 8.36604 27.9988 5.68596 27.1134C2.39886 26.0279 -0.213708 25.4539 0.0138125 23.6101C0.132335 22.6496 1.43396 21.6675 3.9187 20.664C19.2202 13.8903 29.4236 9.42447 34.5288 7.26655C49.1054 1.1061 52.1342 0.0360332 54.1085 0.000335452C54.5428 -0.00697614 55.5136 0.10227 56.1424 0.620748C56.5607 0.990088 56.8273 1.50549 56.8895 2.065C56.9961 2.75972 57.0257 3.46438 56.9778 4.16579Z" fill="white"/>
</svg>
